<svg xmlns="http://www.w3.org/2000/svg" viewBox="1001 181 103 54" fill="none">
  <!-- large mountain body -->
  <path d="M1027.08 191.39L1002.26 234.37H1076.91L1052.09 191.39C1046.53 181.76 1032.63 181.76 1027.07 191.39H1027.08Z" fill="#AA8B74"/>
  <!-- large mountain snow cap -->
  <path d="M1028.11 191.53C1030.02 191.53 1030.02 194.84 1031.94 194.84C1033.86 194.84 1033.85 191.53 1035.76 191.53C1037.67 191.53 1037.67 194.84 1039.58 194.84C1041.49 194.84 1041.49 191.53 1043.4 191.53C1045.31 191.53 1045.31 194.84 1047.22 194.84C1049.13 194.84 1049.13 191.53 1051.05 191.53C1052.53 191.53 1052.87 193.52 1053.84 194.41L1052.1 191.39C1046.54 181.76 1032.64 181.76 1027.08 191.39L1025.35 194.39C1026.3 193.49 1026.64 191.53 1028.11 191.53Z" fill="#D8C2B4"/>
  <!-- small mountain body -->
  <path d="M1069.91 205.35L1053.15 234.37H1103.56L1086.8 205.35C1083.05 198.85 1073.66 198.85 1069.9 205.35H1069.91Z" fill="#AA8B74"/>
  <!-- small mountain snow cap -->
  <path d="M1070.61 205.44C1071.9 205.44 1071.9 207.67 1073.19 207.67C1074.48 207.67 1074.48 205.44 1075.77 205.44C1077.06 205.44 1077.06 207.67 1078.35 207.67C1079.64 207.67 1079.64 205.44 1080.93 205.44C1082.22 205.44 1082.22 207.67 1083.51 207.67C1084.8 207.67 1084.8 205.44 1086.09 205.44C1087.09 205.44 1087.32 206.78 1087.97 207.38L1086.79 205.34C1083.04 198.84 1073.65 198.84 1069.89 205.34L1068.72 207.37C1069.36 206.76 1069.59 205.44 1070.59 205.44H1070.61Z" fill="#D8C2B4"/>
</svg>
